<?xml version="1.0" encoding="UTF-8" standalone="no"?>
<svg
   xmlns:dc="http://purl.org/dc/elements/1.1/"
   xmlns:cc="http://creativecommons.org/ns#"
   xmlns:rdf="http://www.w3.org/1999/02/22-rdf-syntax-ns#"
   xmlns:svg="http://www.w3.org/2000/svg"
   xmlns="http://www.w3.org/2000/svg"
   xmlns:xlink="http://www.w3.org/1999/xlink"
   xmlns:sodipodi="http://sodipodi.sourceforge.net/DTD/sodipodi-0.dtd"
   xmlns:inkscape="http://www.inkscape.org/namespaces/inkscape"
   version="1.1"
   id="svg10"
   xml:space="preserve"
   width="468.28247"
   height="69.621269"
   viewBox="0 0 468.28247 69.621269"
   sodipodi:docname="logo.svg"
   inkscape:version="1.0.1 (3bc2e813f5, 2020-09-07)"><metadata
     id="metadata16"><rdf:RDF><cc:Work
         rdf:about=""><dc:format>image/svg+xml</dc:format><dc:type
           rdf:resource="http://purl.org/dc/dcmitype/StillImage" /><dc:title></dc:title></cc:Work></rdf:RDF></metadata><defs
     id="defs14"><linearGradient
       inkscape:collect="always"
       id="linearGradient888"><stop
         style="stop-color:#ff0000;stop-opacity:0;"
         offset="0"
         id="stop886" /><stop
         style="stop-color:#ff0000;stop-opacity:1;"
         offset="1"
         id="stop884" /></linearGradient><clipPath
       clipPathUnits="userSpaceOnUse"
       id="clipPath26"><path
         d="M 0,792 H 612 V 0 H 0 Z"
         id="path24" /></clipPath><linearGradient
       inkscape:collect="always"
       xlink:href="#linearGradient888"
       id="linearGradient890"
       x1="129.76862"
       y1="590.87268"
       x2="473.97495"
       y2="590.87268"
       gradientUnits="userSpaceOnUse" /></defs><sodipodi:namedview
     pagecolor="#ffffff"
     bordercolor="#666666"
     borderopacity="1"
     objecttolerance="10"
     gridtolerance="10"
     guidetolerance="10"
     inkscape:pageopacity="0"
     inkscape:pageshadow="2"
     inkscape:window-width="1920"
     inkscape:window-height="1147"
     id="namedview12"
     showgrid="false"
     inkscape:zoom="2"
     inkscape:cx="310.75922"
     inkscape:cy="130.30982"
     inkscape:window-x="-8"
     inkscape:window-y="-8"
     inkscape:window-maximized="1"
     inkscape:current-layer="g18"
     inkscape:document-rotation="0"
     fit-margin-left="0"
     lock-margins="false" /><g
     id="g18"
     inkscape:groupmode="layer"
     inkscape:label="logo"
     transform="matrix(1.3333333,0,0,-1.3333333,-134.80923,823.13983)"><g
       id="g20"
       transform="translate(-27)"><g
         id="g22"
         clip-path="url(#clipPath26)"><path
           d="M 101.44571,567.1099 229.344,589.094 294.188,575.813 473.594,610.625"
           style="fill:none;stroke:url(#linearGradient890);stroke-width:3.99975;stroke-linecap:butt;stroke-linejoin:miter;stroke-miterlimit:4;stroke-dasharray:none;stroke-opacity:1"
           id="path28"
           sodipodi:nodetypes="cccc" /><path
           d="m 472.946,613.003 2.847,-1.911 -1.911,-2.845 z"
           style="fill:#ed1c24;fill-opacity:1;fill-rule:nonzero;stroke:none"
           id="path30" /><path
           d="m 472.946,613.003 2.847,-1.911 -1.911,-2.845 z"
           style="fill:none;stroke:#ed1c24;stroke-width:4;stroke-linecap:butt;stroke-linejoin:miter;stroke-miterlimit:4;stroke-dasharray:none;stroke-opacity:1"
           id="path32" /><g
           aria-label="StocksNow"
           transform="matrix(1,0,0,-1,143.4062,568)"
           id="text36"
           style="font-style:italic;font-variant:normal;font-weight:bold;font-stretch:normal;font-size:60px;font-family:'HoloLens MDL2 Assets';-inkscape-font-specification:'HoloLens MDL2 Assets Bold Italic';letter-spacing:0px;writing-mode:lr-tb;fill:#231f20;fill-opacity:1;fill-rule:nonzero;stroke:none;stroke-width:0.75"><path
             d="m 22.663906,0.79101562 q -5.595703,0 -9.990234,-0.96679687 Q 8.3084373,-1.1425781 5.115078,-2.578125 l 2.2558593,-10.458984 h 1.2304688 q 3.0175779,2.753906 7.0898439,4.2773434 4.072265,1.4941406 8.759765,1.4941406 4.804688,0 7.060547,-1.2890625 2.25586,-1.3183594 2.25586,-3.7500005 0,-0.908203 -0.38086,-1.552734 -0.351562,-0.673828 -1.40625,-1.318359 -1.054687,-0.644532 -2.90039,-1.259766 -1.816407,-0.644531 -4.716797,-1.464844 -3.19336,-0.878906 -5.742188,-1.904296 -2.519531,-1.025391 -4.30664,-2.431641 -1.78711,-1.435547 -2.72461,-3.310547 -0.908203,-1.875 -0.908203,-4.482422 0,-6.5625 5.771485,-10.458984 5.800781,-3.925781 15.849609,-3.925781 4.833984,0 9.111328,0.791015 4.306641,0.791016 7.294922,2.138672 l -2.138672,10.048828 h -1.201172 q -2.285156,-2.109375 -6.035156,-3.515625 -3.720703,-1.435547 -8.144531,-1.435547 -4.335938,0 -6.708985,1.259766 -2.373047,1.259766 -2.373047,3.486328 0,1.025391 0.351563,1.699219 0.351562,0.673828 1.435547,1.318359 0.9375,0.585938 2.958984,1.289063 2.021485,0.673828 4.746094,1.40625 7.324219,1.96289 10.458984,4.599609 3.134766,2.636719 3.134766,7.148437 0,3.779297 -1.699219,6.6503911 -1.699219,2.8710938 -4.6875,4.6582031 -3.134765,1.90429692 -7.11914,2.78320318 -3.984375,0.87890624 -9.023438,0.87890624 z"
             style="font-style:italic;font-variant:normal;font-weight:bold;font-stretch:normal;font-family:'HoloLens MDL2 Assets';-inkscape-font-specification:'HoloLens MDL2 Assets Bold Italic';fill:#000000;stroke:#ffffff;stroke-width:1.5;stroke-opacity:1"
             id="path862" /><path
             d="m 55.588827,0.64453125 q -5.478515,0 -7.822265,-1.78710935 -2.34375,-1.8164063 -2.34375,-5.3613281 0,-0.9375 0.146484,-1.8164063 0.146484,-0.8789063 0.380859,-2.0507815 l 3.574219,-15.585937 h -4.335937 l 1.611328,-6.94336 h 4.335937 l 2.167969,-9.404296 h 10.576172 l -2.167969,9.404296 h 9.902344 l -1.611328,6.94336 h -9.902344 l -2.724609,11.865234 q -0.292969,1.230469 -0.556641,2.490234 -0.263672,1.230469 -0.263672,2.1093755 0,1.7578125 0.966797,2.4609375 0.996094,0.6738281 3.046875,0.6738281 0.820312,0 2.138672,-0.2929687 1.347656,-0.3222656 2.138672,-0.703125 h 0.878906 l -1.640625,7.06054685 q -1.787109,0.43945312 -3.779297,0.67382813 -1.962891,0.26367187 -4.716797,0.26367187 z"
             style="font-style:italic;font-variant:normal;font-weight:bold;font-stretch:normal;font-family:'HoloLens MDL2 Assets';-inkscape-font-specification:'HoloLens MDL2 Assets Bold Italic';fill:#000000;stroke:#ffffff;stroke-width:1.5;stroke-opacity:1"
             id="path864" /><path
             d="m 99.411328,-20.859375 q 0,4.628906 -1.552734,8.671875 -1.552734,4.0429687 -4.365234,6.9433594 -2.929688,3.0175781 -6.796875,4.6582031 -3.867188,1.6113281 -9.023438,1.6113281 -7.353516,0 -11.279297,-3.515625 -3.925781,-3.515625 -3.925781,-9.7265626 0,-4.394531 1.464844,-8.349609 1.464843,-3.955078 4.335937,-6.972656 2.783203,-2.958985 6.826172,-4.658204 4.072266,-1.728515 9.111328,-1.728515 7.382813,0 11.279297,3.486328 3.925781,3.457031 3.925781,9.580078 z m -13.710937,10.78125 q 1.347656,-2.050781 2.021484,-4.482422 0.703125,-2.43164 0.703125,-5.917969 0,-3.017578 -1.318359,-4.628906 -1.31836,-1.640625 -4.189453,-1.640625 -2.226563,0 -3.925782,1.083985 -1.669921,1.083984 -2.958984,3.076171 -1.201172,1.845704 -1.904297,4.570313 -0.673828,2.724609 -0.673828,5.595703 0,3.3691406 1.494141,4.8339844 1.49414,1.4355469 4.101562,1.4355469 1.904297,0 3.66211,-1.0253907 1.757812,-1.0546875 2.988281,-2.9003906 z"
             style="font-style:italic;font-variant:normal;font-weight:bold;font-stretch:normal;font-family:'HoloLens MDL2 Assets';-inkscape-font-specification:'HoloLens MDL2 Assets Bold Italic';fill:#000000;stroke:#ffffff;stroke-width:1.5;stroke-opacity:1"
             id="path866" /><path
             d="m 110.71406,0.87890625 q -3.36914,0 -6.32812,-0.84960937 -2.92969,-0.8203125 -5.126955,-2.57812498 -2.138672,-1.7285156 -3.339843,-4.3359375 -1.201172,-2.6074219 -1.201172,-6.0351564 0,-4.423828 1.669922,-8.203125 1.699218,-3.808594 4.746098,-6.65039 2.98828,-2.783204 7.29492,-4.394532 4.30664,-1.640625 9.3164,-1.640625 3.01758,0 5.97657,0.673828 2.98828,0.673829 5.53711,1.962891 l -2.22657,8.994141 h -1.49414 q -1.72851,-2.080078 -3.92578,-3.076172 -2.16797,-1.025391 -4.89258,-1.025391 -4.98047,0 -7.99804,3.544922 -3.01758,3.515625 -3.01758,8.789062 0,3.66211 1.8457,5.4785161 1.875,1.8164063 5.80078,1.8164063 3.04688,0 5.53711,-1.2304688 2.51953,-1.2597656 4.30664,-2.7832036 h 1.49414 l -2.22656,8.9941411 q -3.16406,1.37695315 -5.56641,1.96289065 -2.37304,0.5859375 -6.18164,0.5859375 z"
             style="font-style:italic;font-variant:normal;font-weight:bold;font-stretch:normal;font-family:'HoloLens MDL2 Assets';-inkscape-font-specification:'HoloLens MDL2 Assets Bold Italic';fill:#000000;stroke:#ffffff;stroke-width:1.5;stroke-opacity:1"
             id="path868" /><path
             d="M 158.89461,0 H 147.7911 l -6.47461,-14.53125 -4.65821,4.160156 L 134.22664,0 h -10.60547 l 10.51758,-45.585937 h 10.60547 l -6.26953,27.216796 14.70703,-14.53125 h 12.1582 l -15.23437,14.326172 z"
             style="font-style:italic;font-variant:normal;font-weight:bold;font-stretch:normal;font-family:'HoloLens MDL2 Assets';-inkscape-font-specification:'HoloLens MDL2 Assets Bold Italic';fill:#000000;stroke:#ffffff;stroke-width:1.5;stroke-opacity:1"
             id="path870" /><path
             d="m 168.17743,0.90820313 q -4.21875,0 -8.17383,-0.79101563 -3.95508,-0.79101562 -6.06446,-1.8457031 l 2.02149,-8.6718754 h 0.9668 q 0.64453,0.556641 1.61132,1.2304691 0.9961,0.6738281 2.8125,1.40625 1.55274,0.6738282 3.60352,1.171875 2.05078,0.46875 4.42383,0.46875 3.54492,0 5.30273,-0.8203125 1.78711,-0.8203125 1.78711,-2.34375 0,-1.1718746 -1.25976,-1.7871096 -1.25977,-0.615234 -5.21485,-1.523437 -6.70898,-1.552735 -9.19922,-3.75 -2.46093,-2.197266 -2.46093,-5.478516 0,-5.566406 4.98046,-8.759765 4.98047,-3.222657 13.47657,-3.222657 3.6914,0 7.38281,0.761719 3.69141,0.732422 5.41992,1.582031 l -1.93359,8.320313 h -0.90821 q -2.08007,-1.611328 -5.03906,-2.607422 -2.92969,-1.025391 -6.03515,-1.025391 -3.36914,0 -5.18555,0.820313 -1.78711,0.791015 -1.78711,2.460937 0,1.289063 1.55273,1.992188 1.55274,0.673828 4.89258,1.40625 6.21094,1.347656 8.93555,3.398437 2.75391,2.050781 2.75391,5.742188 0,5.5078123 -5.03907,8.7011716 -5.03906,3.16406253 -13.62304,3.16406253 z"
             style="font-style:italic;font-variant:normal;font-weight:bold;font-stretch:normal;font-family:'HoloLens MDL2 Assets';-inkscape-font-specification:'HoloLens MDL2 Assets Bold Italic';fill:#000000;stroke:#ffffff;stroke-width:1.5;stroke-opacity:1"
             id="path872" /><path
             d="M 228.11508,0 H 218.535 L 205.73226,-30.205078 198.75961,0 h -10.3711 l 10.07813,-43.623047 h 12.59765 l 10.95704,25.253906 5.80078,-25.253906 h 10.37109 z"
             style="font-style:italic;font-variant:normal;font-weight:bold;font-stretch:normal;font-family:'HoloLens MDL2 Assets';-inkscape-font-specification:'HoloLens MDL2 Assets Bold Italic';fill:#000000;stroke:#ffffff;stroke-width:1.5;stroke-opacity:1"
             id="path874" /><path
             d="m 265.64133,-20.859375 q 0,4.628906 -1.55273,8.671875 -1.55274,4.0429687 -4.36524,6.9433594 -2.92968,3.0175781 -6.79687,4.6582031 -3.86719,1.6113281 -9.02344,1.6113281 -7.35352,0 -11.2793,-3.515625 -3.92578,-3.515625 -3.92578,-9.7265626 0,-4.394531 1.46485,-8.349609 1.46484,-3.955078 4.33593,-6.972656 2.78321,-2.958985 6.82618,-4.658204 4.07226,-1.728515 9.11132,-1.728515 7.38282,0 11.2793,3.486328 3.92578,3.457031 3.92578,9.580078 z m -13.71094,10.78125 q 1.34766,-2.050781 2.02149,-4.482422 0.70312,-2.43164 0.70312,-5.917969 0,-3.017578 -1.31836,-4.628906 -1.31836,-1.640625 -4.18945,-1.640625 -2.22656,0 -3.92578,1.083985 -1.66992,1.083984 -2.95898,3.076171 -1.20118,1.845704 -1.9043,4.570313 -0.67383,2.724609 -0.67383,5.595703 0,3.3691406 1.49414,4.8339844 1.49414,1.4355469 4.10156,1.4355469 1.9043,0 3.66211,-1.0253907 1.75782,-1.0546875 2.98828,-2.9003906 z"
             style="font-style:italic;font-variant:normal;font-weight:bold;font-stretch:normal;font-family:'HoloLens MDL2 Assets';-inkscape-font-specification:'HoloLens MDL2 Assets Bold Italic';fill:#000000;stroke:#ffffff;stroke-width:1.5;stroke-opacity:1"
             id="path876" /><path
             d="M 318.28977,-32.900391 301.0925,0 H 289.90109 L 287.70383,-22.177734 276.60031,0 h -11.33789 l -3.10547,-32.900391 h 10.78125 l 0.9668,22.675782 11.68945,-22.675782 h 9.34571 l 2.02148,22.675782 10.19531,-22.675782 z"
             style="font-style:italic;font-variant:normal;font-weight:bold;font-stretch:normal;font-family:'HoloLens MDL2 Assets';-inkscape-font-specification:'HoloLens MDL2 Assets Bold Italic';fill:#000000;stroke:#ffffff;stroke-width:1.5;stroke-opacity:1"
             id="path878" /></g></g></g></g></svg>
